PathFileType	4	(X/Y/Z)	marker.trc
DataRate	CameraRate	NumFrames	NumMarkers	Units	OrigDataRate	OrigDataStartFrame	OrigNumFrames
128	128	35	6	m	128	2247	2567
Frame#	Time	US29-1	US29-2	US29-3	US30-1	US30-2	US30-3	
		X1	Y1	Z1	X2	Y2	Z2	X3	Y3	Z3	X4	Y4	Z4	X5	Y5	Z5	X6	Y6	Z6	

2246	17.539062	0.124910190701485	0.234310328960419	0.128745600581169	0.147332087159157	0.259264439344406	0.107863962650299	0.117371514439583	0.255650877952576	0.131654351949692	0.0750895664095879	0.244808197021484	0.066978432238102	0.0798509791493416	0.232853144407272	0.0898909419775009	0.0674088671803474	0.253585249185562	0.0897287651896477	
2247	17.546875	0.129698723554611	0.237111866474152	0.129106596112251	0.151892691850662	0.262224286794662	0.108227103948593	0.12189856916666	0.258335769176483	0.13201205432415	0.079851008951664	0.247064158320427	0.0673235952854156	0.0846758335828781	0.235266923904419	0.0901606604456902	0.0721104070544243	0.255715787410736	0.0900072753429413	
2248	17.554687	0.134404346346855	0.239904701709747	0.129522398114204	0.156357854604721	0.265270680189133	0.108588263392448	0.126395255327225	0.261101812124252	0.132362335920334	0.0844937190413475	0.249404475092888	0.0677255541086197	0.0894801840186119	0.237833172082901	0.0905233472585678	0.0766477361321449	0.25801220536232	0.0903882011771202	
2249	17.5625	0.139071732759476	0.242824882268906	0.129952654242516	0.16071791946888	0.268573105335236	0.109028734266758	0.13088820874691	0.26392474770546	0.132810175418854	0.0892520695924759	0.251820415258408	0.0678731501102448	0.0940892249345779	0.240292742848396	0.0909862890839577	0.0811789631843567	0.26032030582428	0.0908183455467224	
2250	17.570312	0.143676459789276	0.245753690600395	0.130419954657555	0.165111482143402	0.27174174785614	0.109519831836224	0.135350406169891	0.266750276088715	0.133310765028	0.0937691032886505	0.254229724407196	0.068395234644413	0.0986500233411789	0.242955192923546	0.0914212241768837	0.0856232345104218	0.262715578079224	0.0912901163101196	
2251	17.578125	0.148209199309349	0.248736247420311	0.130903571844101	0.169476434588432	0.274882405996323	0.110006496310234	0.139786556363106	0.269719153642654	0.133806213736534	0.0982020199298859	0.256654649972916	0.0688916966319084	0.103190347552299	0.245519012212753	0.0919564440846443	0.0900208503007889	0.265118658542633	0.0917475819587708	
2252	17.585937	0.15275751054287	0.251750975847244	0.131387189030647	0.173739820718765	0.278066486120224	0.110423013567924	0.143756866455078	0.272703737020493	0.134078294038773	0.102639079093933	0.259179681539536	0.0693513825535774	0.107547730207443	0.248182475566864	0.0924659892916679	0.0943185016512871	0.267577856779099	0.0922150164842606	
2253	17.59375	0.157155856490135	0.254796057939529	0.131893992424011	0.177942931652069	0.281238555908203	0.110811017453671	0.148286432027817	0.275594443082809	0.134660452604294	0.107036620378494	0.261667609214783	0.069836750626564	0.111938692629337	0.250883668661118	0.0930250585079193	0.0986217558383942	0.270032376050949	0.0926840677857399	
2254	17.601562	0.161533609032631	0.257884055376053	0.132339090108871	0.182034134864807	0.284482210874557	0.111234918236732	0.152223974466324	0.27871298789978	0.135000124573708	0.111170090734959	0.26431992650032	0.0703593194484711	0.116373173892498	0.253572076559067	0.0935875996947289	0.102857373654842	0.272597044706345	0.0932166576385498	
2255	17.609375	0.165818095207214	0.260999858379364	0.132777020335197	0.186027511954308	0.287715017795563	0.111541517078876	0.156552165746689	0.281689286231995	0.13551452755928	0.115365713834763	0.266921907663345	0.0708734840154648	0.120575338602066	0.256409913301468	0.0941082462668419	0.106943987309933	0.275240957736969	0.0937035456299782	
2256	17.617187	0.169950261712074	0.264182150363922	0.133202448487282	0.189957693219185	0.291020512580872	0.111944191157818	0.160268902778625	0.284836202859879	0.135852411389351	0.119461603462696	0.2695671916008	0.0713266581296921	0.124554455280304	0.25919097661972	0.094665490090847	0.110913172364235	0.277864694595337	0.0941901654005051	
2257	17.625	0.174017891287804	0.26737117767334	0.133662059903145	0.193810299038887	0.294342428445816	0.112404361367226	0.16451558470726	0.287879168987274	0.136453047394753	0.123361729085445	0.272356063127518	0.0718688294291496	0.128489509224892	0.261971801519394	0.095204159617424	0.114760138094425	0.280514597892761	0.0947227254509926	
2258	17.632812	0.177958324551582	0.270587414503098	0.134135469794273	0.197443872690201	0.297607332468033	0.112806357443333	0.16796025633812	0.291082710027695	0.136745393276215	0.127152279019356	0.275003135204315	0.0724263414740562	0.132499098777771	0.264819651842117	0.0957325100898743	0.118529684841633	0.283212810754776	0.0952985212206841	
2259	17.640625	0.181716203689575	0.273740082979202	0.134584054350853	0.201018661260605	0.300834804773331	0.113111086189747	0.171571969985962	0.294137805700302	0.137129619717598	0.130792260169983	0.277768641710281	0.0729656666517258	0.136299982666969	0.267637133598328	0.0963050425052643	0.122153237462044	0.285887986421585	0.0958164781332016	
2260	17.648437	0.185341656208038	0.276865810155869	0.135002657771111	0.204448059201241	0.304047048091888	0.113508209586143	0.175353139638901	0.297121584415436	0.137648895382881	0.134270206093788	0.280396640300751	0.0735214799642563	0.139954298734665	0.270318061113358	0.0968577191233635	0.125612139701843	0.288522988557816	0.0963796228170395	
2261	17.65625	0.188937932252884	0.279954165220261	0.135481551289558	0.207780718803406	0.307226836681366	0.113854847848415	0.178537264466286	0.300252854824066	0.137975826859474	0.137651026248932	0.282982170581818	0.0740295127034187	0.143402561545372	0.273038655519485	0.0974366143345833	0.129068776965141	0.291117817163467	0.0969315469264984	
2262	17.664062	0.192306458950043	0.282995164394379	0.135921820998192	0.210944041609764	0.310337066650391	0.114280708134174	0.181865498423576	0.303259879350662	0.138493046164513	0.140907272696495	0.285727590322495	0.074797697365284	0.146962523460388	0.275923848152161	0.0981846302747726	0.13220477104187	0.293710023164749	0.097518652677536	
2263	17.671875	0.195636570453644	0.286010980606079	0.136445343494415	0.214010626077652	0.313389122486115	0.11471264064312	0.184977754950523	0.306211858987808	0.138954535126686	0.144006580114365	0.288304567337036	0.0754003375768661	0.150192633271217	0.278576612472534	0.0988056212663651	0.135455265641212	0.296246021986008	0.0981097370386124	
2264	17.679687	0.198786452412605	0.288961589336395	0.136978149414062	0.216987580060959	0.31638303399086	0.115156032145023	0.188030213117599	0.309071332216263	0.139453411102295	0.146722659468651	0.291068136692047	0.0761324316263199	0.153222024440765	0.281556487083435	0.0994665250182152	0.13847304880619	0.298800110816956	0.0986920744180679	
2265	17.6875	0.201773181557655	0.291838496923447	0.137490645051003	0.219849959015846	0.319303780794144	0.115568831562996	0.190979585051537	0.31191486120224	0.140006855130196	0.150088608264923	0.293390333652496	0.0765770673751831	0.156340375542641	0.283807992935181	0.0999735370278358	0.141412451863289	0.301324993371964	0.0992667078971863	
2266	17.695312	0.204665437340736	0.294658929109573	0.138046428561211	0.222678452730179	0.322175055742264	0.116057828068733	0.193771153688431	0.314672142267227	0.140526682138443	0.152634546160698	0.296039819717407	0.0772505477070808	0.159116327762604	0.286718606948853	0.100642122328281	0.144208446145058	0.303809762001038	0.0998180583119392	
2267	17.703125	0.207432419061661	0.297427028417587	0.138562962412834	0.225227788090706	0.324984461069107	0.116606257855892	0.196420684456825	0.317390918731689	0.141018837690353	0.15565699338913	0.298307776451111	0.0776766389608383	0.162001058459282	0.288854777812958	0.101118505001068	0.146868869662285	0.30624321103096	0.100316531956196	
2268	17.710937	0.209994092583656	0.300109177827835	0.139096707105637	0.227712213993073	0.32770848274231	0.117089129984379	0.198911249637604	0.319986164569855	0.141502663493156	0.157972633838654	0.300941407680511	0.0782375335693359	0.16454853117466	0.29174268245697	0.101707592606544	0.149556174874306	0.308663070201874	0.100767567753792	
2269	17.71875	0.212437584996223	0.302721381187439	0.139569237828255	0.230043858289719	0.330368489027023	0.117584824562073	0.201262608170509	0.322552651166916	0.14194168150425	0.160808473825455	0.303118020296097	0.0786051675677299	0.167284160852432	0.293768465518951	0.102070420980453	0.151914358139038	0.311011880636215	0.10125494748354	
2270	17.726562	0.21459923684597	0.305276781320572	0.140019878745079	0.232240632176399	0.332978308200836	0.118107199668884	0.203487411141396	0.325054883956909	0.142428040504456	0.163065135478973	0.305515944957733	0.0790141224861145	0.169525787234306	0.296124786138535	0.102491587400436	0.154208615422249	0.313337653875351	0.101619318127632	
2271	17.734375	0.216714769601822	0.30771866440773	0.140437498688698	0.234208166599274	0.335498303174973	0.118503831326962	0.205387085676193	0.327481120824814	0.142780765891075	0.16483137011528	0.307984620332718	0.0794707834720612	0.171406373381615	0.298806011676788	0.102919317781925	0.156215339899063	0.315598875284195	0.101934857666492	
2272	17.742187	0.218572810292244	0.310082793235779	0.140769630670547	0.236050933599472	0.337909191846848	0.118864789605141	0.207235515117645	0.329798936843872	0.14320020377636	0.167129769921303	0.310029059648514	0.0796152204275131	0.173593536019325	0.300691813230515	0.103123351931572	0.158118829131126	0.317792356014252	0.102221734821796	
2273	17.75	0.220168426632881	0.312314242124557	0.141061648726463	0.237603291869164	0.340191662311554	0.119238786399364	0.208804354071617	0.332034647464752	0.143423601984978	0.168815836310387	0.312160968780518	0.0798488929867744	0.175285279750824	0.302880674600601	0.103364549577236	0.159809723496437	0.319927036762238	0.102414153516293	
2274	17.757812	0.221586287021637	0.314414471387863	0.141286581754684	0.239011645317078	0.342326998710632	0.119456045329571	0.210201546549797	0.334149897098541	0.143622308969498	0.169976681470871	0.31446248292923	0.0801176875829697	0.176548302173615	0.305306613445282	0.103598944842815	0.161292523145676	0.322022348642349	0.102576456964016	
2275	17.765625	0.222820475697517	0.316344916820526	0.141428589820862	0.240212693810463	0.344303399324417	0.119742967188358	0.211418941617012	0.336018621921539	0.143847033381462	0.171639114618301	0.316168665885925	0.0801168456673622	0.178005456924438	0.306859940290451	0.103610672056675	0.162528291344643	0.323845088481903	0.102682150900364	
2276	17.773437	0.22377222776413	0.318065196275711	0.141535222530365	0.241222739219666	0.346049904823303	0.119850464165211	0.212354198098183	0.337777256965637	0.143947824835777	0.172651514410973	0.31797006726265	0.0801982060074806	0.179096788167953	0.308560431003571	0.103690065443516	0.16355998814106	0.325618535280228	0.102722138166428	
2277	17.78125	0.224503353238106	0.319615334272385	0.141573444008827	0.241959542036057	0.347590386867523	0.119848303496838	0.21309220790863	0.339300513267517	0.143975540995598	0.173102498054504	0.319663256406784	0.0802870839834213	0.179523691534996	0.310470700263977	0.103783138096333	0.164246663451195	0.327194094657898	0.102742649614811	
2278	17.789062	0.224983170628548	0.320926159620285	0.141563981771469	0.242465913295746	0.348832607269287	0.11977694183588	0.213634938001633	0.340629428625107	0.143942594528198	0.173561304807663	0.321072161197662	0.0802858844399452	0.180017858743668	0.311817198991776	0.103739231824875	0.164800897240639	0.328590005636215	0.102725952863693	
2279	17.796875	0.225349843502045	0.322060823440552	0.141475528478622	0.242841899394989	0.349966883659363	0.119826465845108	0.213912546634674	0.341761767864227	0.143913045525551	0.174210906028748	0.322094887495041	0.0800999328494072	0.180621773004532	0.31271368265152	0.103599928319454	0.165047571063042	0.329761415719986	0.102663233876228	
2280	17.804687	0.22540295124054	0.322921067476273	0.141422256827354	0.243023499846458	0.350845754146576	0.119821168482304	0.21403731405735	0.342661261558533	0.143836483359337	0.173980250954628	0.323328852653503	0.0800819918513298	0.180392369627953	0.314036726951599	0.103574715554714	0.165165513753891	0.330848008394241	0.102575480937958	
